<svg xmlns="http://www.w3.org/2000/svg" width="1134" height="441" viewBox="0 0 1134 441">
    <g fill="none" fill-rule="evenodd">
        <path fill="#54585A" d="M0 288.628l67.556-133.883 67.204 133.883h-32.111l-35.093-70.363-35.445 70.363H0M187.927 260.202h14.564c5.379 0 10.467-1.023 15.266-3.069 4.795-2.046 9.006-4.828 12.634-8.337 3.624-3.508 6.462-7.602 8.51-12.283 2.045-4.677 3.07-9.708 3.07-15.089 0-5.265-1.025-10.265-3.07-15.003-2.048-4.738-4.886-8.861-8.51-12.37-3.628-3.51-7.839-6.288-12.634-8.335-4.799-2.045-9.887-3.071-15.266-3.071h-14.564v77.557zm82.646-38.778c0 9.243-1.785 17.926-5.352 26.057-3.57 8.132-8.423 15.238-14.564 21.32-6.141 6.083-13.366 10.878-21.671 14.388-8.306 3.508-17.137 5.263-26.495 5.263h-43.165V154.57h43.165c9.358 0 18.189 1.754 26.495 5.264 8.305 3.509 15.53 8.307 21.671 14.388 6.141 6.084 10.994 13.161 14.564 21.232 3.567 8.072 5.352 16.73 5.352 25.97zM271.449 288.628l67.555-133.883 67.205 133.883h-32.111l-35.094-70.363-35.444 70.363h-32.111M459.376 258.271h53.869v30.181h-82.47V154.57h28.601v103.701M537.443 288.628l67.556-133.883 67.204 133.883h-32.111l-35.093-70.363-35.445 70.363h-32.111M725.37 260.026h22.285c4.912 0 9.036-1.694 12.37-5.087 3.334-3.392 5-7.547 5-12.458 0-4.914-1.666-9.065-5-12.46-3.334-3.391-7.458-5.088-12.37-5.088H725.37v35.093zm0-63.695h22.285c1.754 0 3.245-.641 4.474-1.93 1.228-1.286 1.842-2.807 1.842-4.562 0-1.755-.614-3.273-1.842-4.562-1.229-1.286-2.72-1.93-4.474-1.93H725.37v12.984zm68.434 46.15c0 6.315-1.202 12.282-3.598 17.897-2.399 5.616-5.702 10.527-9.914 14.74-4.212 4.21-9.124 7.517-14.739 9.913-5.615 2.399-11.582 3.597-17.898 3.597h-50.886V154.745h50.886c4.794 0 9.327.938 13.599 2.808 4.268 1.873 7.983 4.387 11.142 7.545 3.159 3.159 5.672 6.873 7.544 11.142 1.871 4.272 2.809 8.804 2.809 13.599 0 6.553-1.64 12.458-4.914 17.723 4.914 4.329 8.802 9.475 11.669 15.441 2.865 5.966 4.3 12.458 4.3 19.478z"/>
        <path fill="#B8B8B9" d="M1031.42 168.92L761.415 303.391l-64.945 32.701V441l437.39-220.661-102.44-51.419"/>
        <path fill="#14D9C4" d="M1031.05 272.225l-.02-.009 102.81-51.868.02.009-102.81 51.868m-103.53-51.561L696.47 105.591V.823l334.93 168.106-103.88 51.735"/>
        <path fill="#099D8D" d="M1031.03 272.216l-103.51-51.552 103.88-51.735 102.44 51.419-102.81 51.868"/>
    </g>
</svg>
